<svg xmlns="http://www.w3.org/2000/svg" viewBox="0 0 64 64" id="basket">
  <circle cx="32" cy="29" r="5" fill="#e07a5f"></circle>
  <path fill="#81b29a" d="M55 32v17a2 2 0 0 1-2 2H11a2 2 0 0 1-2-2V32h17.81a3.84 3.84 0 0 0 .32.5 6 6 0 0 0 9.74 0 3.84 3.84 0 0 0 .32-.5zM32 13a13.5 13.5 0 0 1 13.47 13h3a16.48 16.48 0 0 0-32.94 0h3A13.5 13.5 0 0 1 32 13z"></path>
  <path fill="#3d405b" d="M26.81 32a3.84 3.84 0 0 0 .32.5H7.5V27A1.5 1.5 0 0 1 9 25.5h18.13A6 6 0 0 0 26 29a5.86 5.86 0 0 0 .81 3zm29.69-5v5.5H36.87a3.84 3.84 0 0 0 .32-.5 5.86 5.86 0 0 0 .81-3 6 6 0 0 0-1.13-3.5H55a1.5 1.5 0 0 1 1.5 1.5z"></path>
  <path fill="#e07a5f" d="M14 33v-4h6v4M44 33v-4h6v4"></path>
  <path fill="#3d405b" d="M21 51v3h-8v-3M51 51v3h-8v-3"></path>
  <circle cx="32" cy="29" r="2" fill="#f4f1de"></circle>
  <path fill="#f2cc8f" d="M41 36h2v12h-2zM37 36h2v12h-2zM21 36h2v12h-2zM25 36h2v12h-2z"></path>
</svg>
