<svg xmlns="http://www.w3.org/2000/svg" viewBox="0 0 32 32" id="mobile-ui">
  <rect width="17" height="31" x="7.5" y=".5" fill="#e0e0e2" rx="2" ry="2"></rect>
  <rect width="17" height="21" x="7.5" y="4.5" fill="#82c8ec"></rect>
  <circle cx="16" cy="28.5" r="1" fill="#afaeb3"></circle>
  <rect width="13" height="3" x="9.5" y="14.5" fill="#e0e0e2" rx="1" ry="1"></rect>
  <rect width="13" height="3" x="9.5" y="19.5" fill="#e0e0e2" rx="1" ry="1"></rect>
  <circle cx="16" cy="10" r="2.5" fill="#fbeb9a"></circle>
  <path d="M22.5,0H9.5A2.5,2.5,0,0,0,7,2.5v27A2.5,2.5,0,0,0,9.5,32h13A2.5,2.5,0,0,0,25,29.5V2.5A2.5,2.5,0,0,0,22.5,0ZM24,29.5A1.5,1.5,0,0,1,22.5,31H9.5A1.5,1.5,0,0,1,8,29.5V26H24ZM24,25H8V5H24ZM24,4H8V2.5A1.5,1.5,0,0,1,9.5,1h13A1.5,1.5,0,0,1,24,2.5ZM16,30a1.5,1.5,0,1,0-1.5-1.5A1.5,1.5,0,0,0,16,30Zm0-2a.5.5,0,1,1-.5.5A.5.5,0,0,1,16,28ZM16,2a.5.5,0,1,0,.5.5A.5.5,0,0,0,16,2ZM10.5,18h11A1.5,1.5,0,0,0,23,16.5v-1A1.5,1.5,0,0,0,21.5,14h-11A1.5,1.5,0,0,0,9,15.5v1A1.5,1.5,0,0,0,10.5,18ZM10,15.5a.5.5,0,0,1,.5-.5h11a.5.5,0,0,1,.5.5v1a.5.5,0,0,1-.5.5h-11a.5.5,0,0,1-.5-.5Zm.5,7.5h11A1.5,1.5,0,0,0,23,21.5v-1A1.5,1.5,0,0,0,21.5,19h-11A1.5,1.5,0,0,0,9,20.5v1A1.5,1.5,0,0,0,10.5,23ZM10,20.5a.5.5,0,0,1,.5-.5h11a.5.5,0,0,1,.5.5v1a.5.5,0,0,1-.5.5h-11a.5.5,0,0,1-.5-.5ZM16,13a3,3,0,1,0-3-3A3,3,0,0,0,16,13Zm0-5a2,2,0,1,1-2,2A2,2,0,0,1,16,8Z"></path>
</svg>
